<?xml version="1.0" encoding="UTF-8"?> <!-- SVG gjord i Illustrator -->
<svg id="Layer_1" xmlns="http://www.w3.org/2000/svg" xmlns:xlink="http://www.w3.org/1999/xlink" viewBox="0 0 2430.98 397.5">
  <defs>
    <style>
      .cls-1 {
        fill: url(#linear-gradient);
      }
    </style>
    <linearGradient id="linear-gradient" x1="1202.99" y1="4" x2="1202.99" y2="370" gradientUnits="userSpaceOnUse">
      <stop offset="0" stop-color="#ffe02b"/>
      <stop offset="1" stop-color="#f3796f"/>
    </linearGradient>
  </defs>
  <g>
    <path d="M194.5,169v30c0,19.5,0,27.5-5.5,27.5-6,0-28.5,2-40,2l-4.51.75,13.51,49.75c3,11.5,7,44.5,7,71,0,24-3.5,45-14,45-21.5,0-64.5-52-94-73,7-14.5,15.5-33,15.5-50,0-25-7-80-15.5-121.5l1.5,37-17-7c0-4.5,2-8.5,2-12.5,0-31-16-69.5-16-90.5,0-7,1.5-12,7-14.5,47-21,133-34,160-34,16.5,0,30.5,4.5,30.5,14,0,27.5-47.5,68.5-47.5,80,0,9.5,5.5,22,11.5,29.5l-52.5,8.5c-8.5-8.5-11-14-13.5-28.5-1-7-2.5-20-2.5-28.5l26-7-38.5,7,8,1.5c0,21.5,6,49.5,13.5,70.5,12.5-6,38-12.5,53.5-12.5,7,0,11.5,1.5,11.5,5.5ZM1485.16,246.72c14.24-2.93,36.68-3.65,64.83-4.22,8.5,22.5,25.5,37.5,37,37.5,8,0,9.5-3,9.5-6.5,0-9.5-43-31-68-43.5-15-7.5-33.5-26.5-33.5-60,0-36,36.5-81,158-81,12.5,0,16.5,13.5,16.5,30.5,0,33.5-12.5,72.5-13.5,73-3,3-34.5,6.5-45.5,6.5-9.5,0-6-25.5-11.5-41.5-13.5,3-18,8-18,16.5,0,12,33,31.5,50.5,39,32.28,13.9,48.07,42.67,50.99,68.66,8.77-22.65,13.01-42.22,13.01-74.16,0-16-1-35-3-59v38.5c-10.5,0-14-6.5-14.5-11-1-10.5-2-21.5-2-30.5,0-7,.5-18.5,1.5-22,1.5-6,39-34.5,62-34.5,8.5,0,15.5,65,19.5,114l18-7c-6-35-16-73-16-93,0-8.5,1-13,13.5-13,20.5,0,45.5,17,47,21.5,6.14,18.43,45.14,106.52,69.27,167.42,1.22-54.7,3.85-128.8,7.73-161.92,1-7,27.5-28,44-28,9,0,33,101.5,49.5,172l-4-34.5c1.5-1.5,4.5-1.5,7-1.5,4.55,0,8.26,9.31,11,21.07.96-2.46,1.95-4.96,3-7.57,13-32,19.5-42.5,38.5-92.5l-14.5,25c-6,0-8.5-1.5-8.5-6,0-5,31.5-69.5,38.5-69.5,23.5,0,35.5-4.5,59.5-6,19.34,5.8,56.03,93.6,71.66,152.96,5.31-31.11,11.86-65.13,18.84-97.96l-11,33-12-3c7.5-63,17-85.5,41-85.5,18,0,45,1,47.5,6.5l49,114c-10-31-13-49.5-13-84.5,0-17,0-34.5,9.5-34.5,15.5,0,61,22,64.5,31,8,20.5,40,186,40,205.5,0,17-18.5,27.5-29,27.5-21,0-37-7.5-63-42-17-22.5-34-54.5-56-103l16,52c3,20,5,38,5,52,0,21-99.5,41-116,41-1.5,0-4-2.5-4-8,0-7.92.74-18.5,2.09-31.06-34.19,26.99-109.95,40.06-161.58,40.06-20.58,0-28.1-15.53-29.99-38.58-22.87,19.25-60.69,38.08-84.51,38.08-2.93,0-5.38-.46-7.44-1.28-1.76.51-3.76.78-6.06.78-34,0-85-26.5-93.5-38l-9-66,26.5-9c-29.5,6.5-47,10.5-72.5,19l19-2.5c3,10,6.5,51.5,6.5,64,0,8-49.5,33-80,33-13.5,0-28-4.5-28-17.5,0-.75.07-1.61.19-2.54-12.71,12.28-30.23,20.04-48.69,20.04-52,0-78.5-26.5-96.5-54l16.5,25.5c-8.5,11-26.5,28.5-37.5,28.5-1.44,0-2.84-.61-4.2-1.71-5.64,1.09-10.88,1.71-13.3,1.71-13,0-50.5-27.5-80.5-49.5-6-7-8.5-35-10-55l-26.5,10.5,16.5-3c.5,6.5,1,17.5,1,28,0,14-3.5,22-7,25.5-9,8-59,39-94.5,43.5-.18-.13-.37-.27-.54-.41-.43,22.03-4.13,40.41-13.96,40.41-21.5,0-64.5-52-94-73,7-14.5,15.5-33,15.5-50,0-25-7-80-15.5-121.5l1.5,37-17-7c0-4.5,2-8.5,2-12.5,0-9.89-1.63-20.55-3.85-31.16-15.48,32.95-50.6,86.08-75.64,114.16l-10.5-22.5c13,55.5,27.5,81,27.5,100,0,10-62.5,26-83,26-9,0-14.5-6-14.5-11.5,0-18,14.5-49,28-105.5l-13,30c-16.8-40.52-44.02-85.17-60.64-118.92-12.11,20.4-37.19,46.08-55.87,62.92,18.5-6,29.5-6.5,44.5-6.5s17.5,17,17.5,24c0,28.5-12,54.5-14.5,92l11.5-46.5c3-1,5.5-3.5,8.5-3.5s4,14,4,29.5c0,10.5-.5,21-1,29.5-1,11.5-2.5,25-21,25-12,0-79.5-18-79.5-34.5,0-5.5,14-39,14-58,0-10-9-11.5-13-11.5-3.5,0-6,1-7.5,2.5,3,17.5,3,35,3,42.5,0,25.5-2.5,59-12.5,59-16.69,0-56.56-22.94-78.28-41.26,5.86,13.4,10.29,25.33,10.29,30.76,0,6-27,10.5-33.5,10.5-13,0-50.5-27.5-80.5-49.5-6-7-8.5-35-10-55l-26.5,10.5,16.5-3c.5,6.5,1,17.5,1,28,0,14-3.5,22-7,25.5-9,8-59,39-94.5,43.5-5.27-3.65-8.9-15.2-10.08-22.64-38.3,9.44-110.67,21.64-138.41,21.64-7.41,0-13.81-21.46-18.94-48.82,1.23,15.96,2.44,32.48,2.44,42.32,0,5.5-.5,9-5,9-14.5,0-70.5-4.5-70.5-22.5,0-15,1.5-28,5.5-49.5l-24,2.5-6.5-32.5,6,79.5c-25,14.5-45.5,21-66.5,21-15,0-16.5-20-16.5-34,0-60.5,3.5-118.5,3.5-180l.99-41.75s51.51-6.25,92.51,9.75c19.42,7.43,36.54,15.51,47.67,27.41,1.16-4.22,2.69-6.47,4.33-7.41,9-5.5,146.5-40,180.5-40,3.5,0,5.5,18.5,5.5,37.5s-.5,36.5-4.5,41.5c-4,5.5-97.5,9-97.5,13.5,0,3,1.5,26,5,33.5l-1-18c6.5-2.5,37-11.5,48-11.5,8.5,0,13,56.5,13,62-5,2-40.5,7.5-47.5,7.5,0,9.5,1.5,14.5,5.5,14.5,17,0,70-22,85.5-22,3.84,0,7.81,13.36,10.77,29.76,27.28-61.4,30.41-69.3,50.23-126.26l-14.5,32.5c-5.5-4-8.5-10.5-8.5-17,0-15.5,22-77.5,27-77.5,19,0,53.5,1.5,57,9.5,10,23.5,39.5,91.5,75,157.5,0,0,7.11,13.39,15.22,29.93,6.23-17.09,27.28-28.9,27.28-71.93,0-21.5-1.5-23-5-52-3-25-9-42-9-46.5,0-22.5,39-26.5,56.5-26.5,9,0,30,73.5,30,96,11.5-22.5,29-96,44-96,10.02,0,23.74,6.93,35.15,15.3,1.02-9.06,7.66-15.3,26.35-15.3,26.5,0,60.5,12,63,21l24,84.5,14-43.5c8-25.5,20-61.5,29-61.5,12.39,0,34.44,1.1,49.96,6.48-1.48-6.98-2.47-13.27-2.47-18.48,0-7,1.5-12,7-14.5,47-21,133-34,160-34,16.5,0,30.5,4.5,30.5,14,0,27.5-47.5,68.5-47.5,80,0,9.5,5.5,22,11.5,29.5l-52.5,8.5c-8.5-8.5-11-14-13.5-28.5-1-7-2.5-20-2.5-28.5l26-7-38.5,7,8,1.5c0,21.5,6,49.5,13.5,70.5,12.5-6,38-12.5,53.5-12.5,7,0,11.5,1.5,11.5,5.5v30c0,19.5,0,27.5-5.5,27.5-6,0-28.5,2-40,2l-11-21.5,20,72c1.45,5.57,3.14,16.17,4.49,28.64,3.22-8.12,7.32-18.04,12.01-28.64,28-63,31-70.5,51-128l-14.5,32.5c-5.5-4-8.5-10.5-8.5-17,0-15.5,22-77.5,27-77.5,19,0,53.5,1.5,57,9.5,9.77,22.97,38.17,88.44,72.59,153,.31-.22.63-.42.97-.63M304,185.5c0-13-12.5-22-28-22.5l4.5,47.5-14.5,5c9.5,0,18-.5,25-4,10-5,13-13,13-26ZM364,184.5l8.5-1.5c-4.32-.37-8.1-1.02-11.33-2.02-3.51,21.26-18.09,40.76-40.17,52.02,4-2,20.5-4.5,24-4.5,5.55,0,17.29,1.5,24.76,11.87-2.12-18.73-3.56-34.82-4.26-43.37l-1.5-12.5ZM676,202h-21.5l-4-35.5-8.5,37-26.5,11,60.5-12.5ZM1407.99,202h-21.5l-4-35.5-8.5,37-26.5,11,60.5-12.5ZM2127.98,248.5l-17.5,12-6.5-94.5c-4,0-22,68.5-22,99.5,0,6,1.5,10,4.5,10,4.5,0,30.5-9.5,41.5-27Z"/>
    <path d="M1263.99,397.5c-14.63,0-36.51-20.54-59.66-42.28-12.36-11.61-25.14-23.61-35.79-31.18l-1.72-1.22.92-1.9c7.38-15.29,15.25-32.93,15.25-48.91,0-18-3.76-52.3-9.04-85.41l.19,4.71-22.16-9.12v-1.67c0-2.62.59-5.06,1.11-7.21.46-1.88.89-3.65.89-5.29,0-6.78-.76-14.33-2.38-23.36-16.89,33.35-49.46,81.92-72.75,108.03l-2.53,2.83-.58-1.25c3.99,14.02,7.87,25.59,11.22,35.6,5.53,16.51,9.52,28.44,9.52,38.65,0,8.87-26.81,16.61-35.62,19.15-19.07,5.5-39.58,9.35-49.88,9.35s-17-7.27-17-14c0-10.07,4.32-23.9,10.3-43.05,2.86-9.15,6.1-19.55,9.49-31.43l-2.33,5.39-2.26-5.45c-10.63-25.63-25.78-53.54-39.15-78.17-7.04-12.97-13.74-25.31-19.42-36.59-12.54,19.39-33.56,40.53-46.16,52.44,13.26-3.35,22.92-3.65,35.03-3.65,15.79,0,20,16.66,20,26.5,0,14.52-3.07,28.45-6.37,43.15l.08-.03c.94-.31,1.9-.85,2.91-1.42,1.83-1.03,3.9-2.2,6.39-2.2,3.59,0,4.84,4.46,5.61,11.15.58,5.07.89,12.28.89,20.85,0,11.27-.57,22.32-1,29.65-.95,10.93-2.38,27.35-23.5,27.35-6.48,0-26.6-4.6-45.09-11.21-21.84-7.8-34.08-15.55-36.47-23.07-.36,4.18-.84,8.35-1.47,12.24-3.57,22.04-10.27,22.04-12.47,22.04-16.36,0-50.52-19.43-72.18-35.72,4.49,11.09,6.68,18.56,6.68,22.72s-5,7.15-16.21,9.93c-7.66,1.9-16.23,3.07-19.79,3.07-12.8,0-43.36-21.66-81.98-49.98l-.23-.17-.19-.22c-5.85-6.83-8.47-29.2-10.34-53.05l-5.4,2.14.12,1.6c.46,6.04,1.01,17.05,1.01,28.19,0,12.42-2.82,22.35-7.73,27.27l-.11.1c-8.3,7.38-59.28,39.48-95.85,44.11l-.95.12-.79-.54c-5.69-3.94-9.15-14.46-10.64-21.64-40.12,9.65-109.6,21.08-136.44,21.08-3.93,0-8.82-2.93-14.36-20.85.23,4.51.36,8.55.36,11.85,0,4.3,0,11.5-7.5,11.5-.73,0-73-1.47-73-25,0-14.13,1.31-26.63,4.94-46.67l-22.28,2.32,3.45,45.72-1.36.79c-25.44,14.76-46.34,21.34-67.75,21.34-19,0-19-26.52-19-36.5,0-30.16.88-60.24,1.74-89.33.87-29.41,1.76-59.83,1.76-90.67l1.04-43.97,2.15-.26c2.13-.26,52.61-6.14,93.72,9.9,16.71,6.39,33.71,13.87,45.73,25.17,1.1-2.41,2.46-4.07,4.12-5.01,8.96-5.48,147.25-40.33,181.74-40.33,3.38,0,5.21,3.87,6.54,13.79.94,7.03,1.46,16.33,1.46,26.21,0,23.27-.83,37.78-5.05,43.06-2.53,3.18-15.31,4.79-54.37,8.27-16.89,1.5-37.64,3.35-42.55,4.94.1,2.39.41,6.86.93,11.76,7.03-2.61,37.15-11.53,48.53-11.53,3.93,0,8.13,3.76,12.16,31.07,2.17,14.69,3.34,30.29,3.34,33.43v1.69l-1.57.63c-4.99,2-35.27,6.72-45.89,7.55.2,6.23,1.24,9.63,2.96,9.63,8.31,0,26.33-5.73,43.75-11.26,17.38-5.52,33.79-10.74,41.75-10.74,2.04,0,6.57,0,11.7,24.01,17.69-39.87,24.47-55.84,34.24-82.82l-.92-.67c-5.97-4.34-9.53-11.45-9.53-19.02,0-8.78,6.34-29.94,11.77-45.39,12.16-34.61,16.06-34.61,17.73-34.61,24.85,0,55.31,1.91,59.29,11,13.74,32.28,41.72,95.61,74.91,157.32.07.13,5.89,11.1,12.92,25.26,1.9-3.58,4.28-7.03,6.76-10.62,8.07-11.68,18.12-26.21,18.12-55.45,0-14.87-.74-20.14-2.35-31.68-.7-5.03-1.58-11.29-2.63-20.02-1.86-15.53-4.9-27.96-6.91-36.19-1.31-5.38-2.11-8.63-2.11-10.61,0-27.6,49.15-29,59-29,2.38,0,5.53,1.58,10.77,13.32,3.15,7.05,6.61,16.74,10,28.03,4.54,15.09,9.11,33.67,10.92,47.1,2.85-7.23,5.98-16.39,9.23-25.91,12.88-37.77,22.15-62.52,33.09-62.52,8.72,0,21.05,5.02,33.49,13.56,2.88-9.11,12.1-13.56,28.01-13.56,25.24,0,62.2,11.29,65.41,22.83l21.74,76.54,11.47-35.64c14.27-45.5,23.07-63.23,31.38-63.23,8.8,0,29.93.55,46.68,5.33-1.14-6.07-1.68-10.85-1.68-14.83,0-6.02.96-13.37,8.47-16.78,46.77-20.9,132.04-34.22,161.03-34.22,20.36,0,33,6.32,33,16.5,0,17.58-17.65,39.43-31.83,56.98-7.7,9.53-15.67,19.39-15.67,23.02,0,9.25,5.64,21.3,10.95,27.94l2.68,3.35-57.99,9.39-.9-.9c-5.86-5.86-9.06-10.42-11.31-17.32,2.01,9.2,4.56,18.47,7.53,27.15,13.25-5.69,37.02-11.6,52.04-11.6,9.29,0,14,2.69,14,8v30c0,9.76,0,16.82-.72,21.45-.33,2.12-1.33,8.55-7.28,8.55-2.44,0-7.82.35-14.06.75-8.54.55-19.18,1.25-25.94,1.25h-1.53l-.46-.9,13.4,48.23c1.11,4.24,2.31,11.15,3.4,19.36,2.32-5.64,5.17-12.39,8.4-19.71,20.9-47.02,27.83-63.03,38.24-91.8l-.92-.67c-5.97-4.34-9.53-11.45-9.53-19.02,0-8.78,6.34-29.94,11.77-45.39,12.16-34.61,16.06-34.61,17.73-34.61,24.85,0,55.31,1.91,59.29,11,13.25,31.15,40.29,92.38,72.51,152.83l-1.18.63,1.24,2.06c-.29.17-.56.35-.82.53l-2.31,1.63-1.33-2.5c-32.31-60.61-59.41-122-72.69-153.2-1.67-3.81-19.32-7.93-54.11-7.98-5.08,5.13-25.09,59.55-25.09,75,0,4.88,1.86,9.51,5.09,12.9l13.12-29.42,4.64,1.84c-20.04,57.63-22.91,64.81-51.08,128.19-5.19,11.73-9.37,22-11.97,28.54l-3.72,9.38-1.09-10.03c-1.32-12.14-2.97-22.71-4.42-28.28l-26.59-95.73,21.54,42.09c6.62-.09,16.24-.71,24.09-1.22,6.33-.41,11.79-.77,14.39-.77,3,0,3-9.41,3-25v-30c0-2.61-5.64-3-9-3-15.39,0-40.37,6.47-52.42,12.25l-2.5,1.2-.93-2.61c-8.01-22.42-13.28-49.32-13.63-69.26l-19.29-3.62,51.82-9.42,1.1,4.87-24.13,6.5c.2,8.49,1.6,20.26,2.45,26.24,2.33,13.49,4.63,18.7,11.9,26.18l47.22-7.65c-5.08-7.65-9.59-18.62-9.59-27.68,0-5.15,6.06-12.9,16.78-26.16,13.69-16.94,30.72-38.02,30.72-53.84,0-7.94-14.06-11.5-28-11.5-25.47,0-111.94,12.76-158.98,33.78-3.97,1.8-5.52,5.23-5.52,12.22,0,4.5.77,10.2,2.41,17.97l.92,4.33-4.18-1.45c-16.96-5.89-41.9-6.35-49.14-6.35-.72,0-4.7.95-12.57,19.66-5.12,12.17-10.19,27.82-14.04,40.09l-16.53,51.38-26.26-92.44c-1.91-6.89-33.19-19.18-60.6-19.18-20.07,0-23.23,7.47-23.87,13.08l-.48,4.29-3.48-2.55c-12.65-9.28-25.24-14.82-33.67-14.82-1.5,0-5.79,1.78-13.19,18.3-5.18,11.56-10.26,26.44-15.17,40.84-4.88,14.29-9.48,27.79-13.42,35.5l-4.73,9.25v-10.38c0-9.93-4.55-32.21-11.06-54.17-7.98-26.94-14.36-38.36-16.57-39.33-20.07.02-53.88,5.09-53.88,24,0,1.38.87,4.93,1.97,9.43,2.04,8.34,5.12,20.95,7.02,36.78,1.05,8.69,1.92,14.92,2.62,19.93,1.65,11.78,2.4,17.15,2.4,32.37,0,30.8-10.54,46.04-19,58.29-3.57,5.17-6.65,9.63-8.43,14.49l-2.01,5.51-2.58-5.27c-8-16.31-15.11-29.72-15.18-29.85-33.28-61.87-61.33-125.36-75.09-157.69-1.67-3.81-19.32-7.93-54.11-7.98-5.08,5.13-25.09,59.55-25.09,75,0,4.88,1.86,9.51,5.09,12.9l13.12-29.42,4.64,1.84c-19.82,56.98-23.11,65.25-50.3,126.46l-3.3,7.43-1.44-8c-3.61-19.97-7.07-26.79-8.49-27.71-7.28.09-23.94,5.38-40.05,10.5-17.79,5.65-36.18,11.5-45.27,11.5-8,0-8-11.91-8-17v-2.5h2.5c6.32,0,36.64-4.69,44.93-6.82-.26-4.9-1.28-17.27-2.99-29.32-3.55-24.92-7.07-28.04-7.56-28.36-9.74.06-36.05,7.51-45.28,10.71l1.62,29.09-5.48-11.74c-3.91-8.37-5.23-32.67-5.23-34.56,0-3.85,3.2-4.75,47.14-8.65,18.92-1.68,47.44-4.22,50.98-6.5,3.89-5.12,3.89-28.56,3.89-39.85,0-20.38-2.09-32.53-3.63-35-35.08.41-169.76,34.25-178.57,39.63-.61.35-2.01,1.55-3.22,5.94l-1.19,4.31-3.05-3.26c-11.43-12.22-30.04-20.39-46.74-26.78-35.27-13.76-79.06-10.75-89.17-9.82l-.94,39.54c0,30.85-.9,61.31-1.76,90.76-.85,29.05-1.74,59.1-1.74,89.19,0,21.49,4.45,31.5,14,31.5,20.11,0,39.87-6.14,63.89-19.88l-5.88-77.93,4.94-.68,6.05,30.27,25.07-2.61-.61,3.29c-4.03,21.66-5.46,34.49-5.46,49.04s48.65,20,68,20c1.56,0,2.5,0,2.5-6.5,0-9.73-1.2-26.15-2.44-42.13l4.95-.65c8.35,44.53,15.2,46.79,16.48,46.79,27.1,0,98.43-11.86,137.82-21.56l2.64-.65.43,2.69c1.2,7.56,4.47,16.95,8.33,20.41,35.36-4.95,83.9-35.5,92.06-42.7,1.52-1.55,6.22-7.65,6.22-23.68,0-9.46-.4-18.82-.8-25.04l-13.75,2.5-1.37-4.78,29.66-11.75.25,3.39c.95,12.64,3.45,46.03,9.24,53.36,28.19,20.67,66.62,48.83,78.77,48.83,8.25,0,29.53-4.77,31-8.08-.03-3.11-1.82-10.78-10.08-29.67l-4.29-9.82,8.2,6.91c21.85,18.42,60.92,40.67,76.67,40.67,4.82,0,10-17.68,10-56.5,0-7.42,0-24.79-2.96-42.08l-.22-1.28.91-.91c1.48-1.47,4.28-3.23,9.27-3.23,7.15,0,15.5,3.67,15.5,14,0,12.74-5.88,31.12-10.18,44.53-1.88,5.87-3.82,11.94-3.82,13.47,0,4.39,8.82,12.24,33.59,21.08,18.94,6.76,38.05,10.92,43.41,10.92,15.35,0,17.35-9.42,18.51-22.72.42-7.2.99-18.14.99-29.28,0-17.55-1.28-24.92-2.2-26.92-.98.21-2.03.81-3.22,1.48-.79.44-1.59.9-2.46,1.29l-11.19,45.25-4.92-.77c1.24-18.58,4.86-34.69,8.05-48.9,3.31-14.75,6.44-28.69,6.44-42.94,0-2.2-.42-21.5-15-21.5s-25.43.44-43.73,6.38l-11.15,3.62,8.7-7.85c19.13-17.26,43.73-42.7,55.39-62.34l2.35-3.97,2.04,4.14c6.03,12.26,13.46,25.94,21.33,40.43,12.5,23.02,26.55,48.91,37.09,73.25l10.68-24.65,4.73,1.58c-6.25,26.18-12.69,46.79-17.86,63.36-5.85,18.72-10.07,32.25-10.07,41.56,0,4.33,4.59,9,12,9,9.64,0,29.9-3.81,48.16-9.06,26.07-7.49,32.24-13.08,32.34-14.45,0-9.4-3.89-21-9.26-37.06-5.28-15.77-11.86-35.4-18.17-62.36l-5.5-23.49,19.08,40.89c24.47-28.31,57.81-78.94,72.73-110.7l3.18-6.77,1.53,7.32c2.66,12.73,3.9,22.8,3.9,31.67,0,2.24-.52,4.39-1.03,6.47-.36,1.5-.71,2.94-.88,4.4l11.75,4.84-1.34-33.1,4.95-.6c8.58,41.86,15.55,96.59,15.55,122,0,16.36-7.5,33.86-14.84,49.2,10.54,7.79,22.76,19.26,34.6,30.37,21.43,20.12,43.59,40.93,56.24,40.93,6.7,0,10.99-14.19,11.46-37.96l.1-5.11,3.65,2.96c35.37-4.95,83.92-35.51,92.08-42.7,1.53-1.56,6.22-7.66,6.22-23.68,0-9.46-.4-18.82-.8-25.04l-13.75,2.5-1.37-4.78,29.66-11.75.25,3.39c.95,12.64,3.45,46.03,9.24,53.36,28.19,20.67,66.62,48.83,78.77,48.83,2.02,0,6.9-.52,12.83-1.67l1.14-.22.9.73c.95.77,1.83,1.16,2.63,1.16,9.32,0,25.55-15.11,34.43-26.14l-15.53-24,4.19-2.73s0,0,0,.01h0c16.11,24.62,41.4,52.86,94.4,52.86,17.12,0,34.23-7.05,46.96-19.34l5.16-4.99-.95,7.12c-.12.86-.17,1.6-.17,2.21,0,11.06,13.17,15,25.5,15s31.36-4.84,49.67-12.95c18.95-8.39,27.47-15.6,27.83-17.6,0-11.1-3.08-48.68-5.88-61.18l-16.8,2.21-1.12-4.85c25.65-8.55,43.47-12.62,72.75-19.07l1.34,4.81-24.55,8.34,8.63,63.29c8.79,10.68,57.97,36.51,91.11,36.51,2,0,3.81-.23,5.37-.68l.82-.24.79.31c1.85.73,4.04,1.1,6.51,1.1,23.7,0,61.48-19.46,82.9-37.49l3.71-3.12.39,4.83c2.05,25.09,10.53,36.28,27.49,36.28,53.31,0,127.51-13.85,160.04-39.52l4.67-3.68-.63,5.91c-1.38,12.85-2.07,23.21-2.07,30.79,0,3.65,1.26,5.19,1.71,5.5,8.13-.08,36.51-4.95,63.3-12.53,31.3-8.86,49.99-18.57,49.99-25.97,0-12.4-1.62-29.23-4.94-51.44l-15.95-51.82,4.67-1.77c22.9,50.48,39.56,81.14,55.72,102.53,25.98,34.47,41.48,41.01,61.01,41.01,9.34,0,26.5-9.49,26.5-25,0-20.12-32.01-184.56-39.83-204.59-2.92-7.51-46.74-29.41-62.17-29.41-7,0-7,17.74-7,32,0,34.39,2.77,52.39,12.88,83.73l-4.68,1.75-49-114c-.09-.15-3.34-4.99-45.2-4.99-21.4,0-30.79,19.77-38.25,81.11l7.62,1.9,10.27-30.8,4.82,1.31c-7.06,33.21-13.57,67.05-18.82,97.86l-1.94,11.39-2.94-11.17c-16.28-61.85-52.08-144.75-69.56-151.07-10.11.65-18.07,1.84-25.76,2.99-10.21,1.52-19.85,2.97-33.19,2.98-1.72.91-7.99,8.67-20.29,32.31-9.37,18.02-15.7,32.63-15.94,34.77,0,1.78,0,3.16,4.58,3.38l13.76-23.72,4.5,2.14c-11.86,31.2-18.84,47.01-25.59,62.31-4.13,9.36-8.04,18.21-12.93,30.24-1.04,2.59-2.02,5.09-2.98,7.54l-2.94,7.5-1.83-7.85c-4.41-18.92-8.4-19.14-8.56-19.14-1.25,0-3.14,0-4.33.33l3.81,32.89-4.92.86c-8.76-37.44-18.04-76.72-26.76-109.42-13.48-50.59-18.83-59.35-20.61-60.65-15.72.26-40.48,20.63-41.22,25.85-3.74,31.95-6.43,104.45-7.7,161.63l-.27,12.34-4.55-11.48c-12.07-30.45-27.64-67.22-41.39-99.66-13.87-32.74-24.83-58.59-27.93-67.9-1.62-3.73-25.2-19.79-44.63-19.79-11,0-11,3.29-11,10.5,0,12.76,4.27,33.58,8.8,55.62,2.49,12.14,5.07,24.69,7.17,36.95l.34,2.01-23.03,8.96-.27-3.34c-8.15-99.87-15.57-110.58-17.2-111.7-22.35.16-57.88,28.02-59.39,32.63-.84,2.96-1.42,13.62-1.42,21.37,0,8.66.94,19.26,1.99,30.26.21,1.84,1.51,7.59,9.51,8.59v-35.85l4.99-.21c2.05,24.63,3.01,43.44,3.01,59.21,0,34.17-5.04,54.05-13.18,75.06l-3.68,9.5-1.14-10.12c-3.35-29.83-21.85-54.74-49.49-66.64-16.29-6.98-52.01-27.08-52.01-41.3,0-10.17,5.97-15.83,19.96-18.94l2.18-.48.73,2.11c2.24,6.51,3.04,14.5,3.76,21.54.86,8.56,1.84,18.27,5.38,18.27,11.48,0,39.65-3.47,43.61-5.71,1.93-4.34,12.89-40.2,12.89-71.29,0-18.58-4.71-28-14-28-114.65,0-155.5,40.55-155.5,78.5s24.58,54,32.12,57.76c45,22.5,69.38,36.45,69.38,45.74,0,6.06-3.92,9-12,9-13.43,0-30.18-16.32-38.69-37.47-26.02.53-48.63,1.25-62.63,4.13l-1.01-4.9c13.47-2.77,34.3-3.59,58.41-4.12-5.61-2.87-10.98-5.55-15.69-7.91-8.18-4.09-34.88-20.67-34.88-62.24s42.16-83.5,160.5-83.5c8.67,0,19,5.73,19,33,0,17.94-3.5,36.79-6.44,49.44-1.43,6.14-3.07,12.32-4.64,17.39-2.05,6.65-2.71,7.74-3.45,8.21-1.04.88-4.35,2.66-20.9,4.81-7.92,1.03-16.5,1.8-22.44,2.06,6.27,3.61,12.68,6.86,18.36,9.29,26.33,11.34,44.85,33.81,50.91,61.2,6-17.52,9.6-35.84,9.6-64.4,0-5.57-.12-11.53-.37-18h-.13c-11.45,0-16.31-7.12-16.98-13.22-1.06-11.17-2.02-21.89-2.02-30.78,0-5.58.39-18.47,1.6-22.69,1.87-7.49,40.72-36.31,64.4-36.31,3.81,0,8.34,3.15,13.91,40.76,3.35,22.61,6.05,51.14,7.81,72.2l12.97-5.04c-2.02-11.55-4.44-23.35-6.79-34.78-4.58-22.3-8.9-43.36-8.9-56.63,0-8.78,1.18-15.5,16-15.5,20.93,0,47.32,17.06,49.37,23.21,3.04,9.11,14.51,36.18,27.79,67.53,12.09,28.53,25.6,60.42,36.9,88.43,1.37-55.04,3.95-120.02,7.46-149.95,1.29-9.04,29.27-30.21,46.48-30.21,3.05,0,6.05,3.12,11.57,18.62,3.5,9.85,7.8,24.24,12.79,42.79,6.21,23.13,12.75,49.83,19.21,76.99l.17-.17c2.23-2.23,5.86-2.23,8.77-2.23,4.55,0,8.26,4.99,11.47,15.58.07-.17.14-.34.2-.51,4.92-12.12,8.84-21,12.99-30.39,4.3-9.73,8.69-19.67,14.37-33.68h-1.04c-5.12,0-11-.97-11-8.5,0-4.09,11.39-27.22,16.91-37.78,17.88-34.22,22.23-34.22,24.09-34.22,13.08,0,22.6-1.42,32.67-2.93,7.92-1.18,16.12-2.41,26.67-3.07l.45-.03.43.13c20.01,6,53.84,86.64,70.38,143.94,2.88-16.37,6.08-33.44,9.49-50.7l-15.84-3.96.26-2.19c6.92-58.17,15.55-87.7,43.48-87.7,46.16,0,48.79,5.79,49.78,7.97l35.36,82.26c-3.07-15.69-4.13-30.91-4.13-51.72,0-18.19,0-37,12-37,15.29,0,62.6,21.73,66.83,32.59,7.88,20.2,40.17,186.1,40.17,206.41,0,18.04-18.96,30-31.5,30-21.14,0-37.76-6.85-65-43-12.56-16.63-25.39-38.69-41.07-70.98l5.54,18.11c3.38,22.55,5.03,39.68,5.03,52.37,0,10.35-18.04,20.71-53.63,30.78-27.84,7.88-56.54,12.72-64.87,12.72-3.2,0-6.5-3.93-6.5-10.5s.51-15.24,1.53-25.7c-35.52,24.44-105.42,37.2-158.52,37.2-23.86,0-30.03-19.46-32.01-36.2-22.89,18.03-58.63,35.7-82.48,35.7-2.78,0-5.31-.39-7.56-1.16-1.81.44-3.8.66-5.94.66-34.44,0-86.5-26.83-95.51-39.01l-.38-.51-.09-.63-9.03-66.18c-7.66,1.85-14.87,3.72-22.33,5.87l.23.76c3.08,10.27,6.61,52.33,6.61,64.72,0,11-52.63,35.5-82.5,35.5-13.69,0-28.26-4.53-30.27-16.99-13.1,10.86-29.66,16.99-46.23,16.99-37.01,0-61.07-13.15-77.98-29.53l-.04.06c-8.81,11.39-27.31,29.47-39.48,29.47-1.63,0-3.24-.52-4.8-1.55-5.08.94-10.09,1.55-12.7,1.55-12.8,0-43.36-21.66-81.98-49.98l-.23-.17-.19-.22c-5.85-6.83-8.47-29.2-10.33-53.05l-5.4,2.14.12,1.6c.46,6.04,1.01,17.05,1.01,28.19,0,12.42-2.82,22.35-7.73,27.27l-.11.1c-8.18,7.27-57.83,38.56-94.27,43.9-.85,26.7-6.35,40.24-16.39,40.24ZM2185.76,352.04h0,0ZM861.2,254.55c2.79,17.21,2.79,34.11,2.79,41.45,0,4.77-.09,11.84-.52,19.47.68-2.45,1.71-5.7,3.08-9.97,3.96-12.36,9.94-31.04,9.94-43.01,0-8.12-7.34-9-10.5-9-1.96,0-3.61.37-4.79,1.05ZM1554.09,245.88c8.54,19.09,23.4,31.62,32.9,31.62,7,0,7-2.31,7-4,0-1.12-1.69-5.76-23.39-18.47-5.19-3.04-10.83-6.14-16.52-9.15ZM1597.3,160.48c-11.43,2.98-13.81,7.42-13.81,13.52,0,5.14,8.34,12.86,19.15,20.23-1.37-4.2-1.93-9.77-2.51-15.5-.6-5.98-1.28-12.66-2.84-18.25ZM827.31,91.48s0,0,0,0t0,0ZM151,397.5c-14.63,0-36.51-20.54-59.66-42.28-12.36-11.61-25.14-23.61-35.79-31.18l-1.72-1.22.92-1.9c7.38-15.29,15.25-32.93,15.25-48.91,0-18-3.76-52.31-9.04-85.42l.19,4.71-22.16-9.12v-1.67c0-2.62.59-5.06,1.11-7.21.46-1.88.89-3.65.89-5.29,0-16.7-4.83-36.01-9.09-53.05-3.56-14.22-6.91-27.66-6.91-37.45,0-6.02.96-13.37,8.47-16.78,46.77-20.9,132.04-34.22,161.03-34.22,20.36,0,33,6.32,33,16.5,0,17.58-17.65,39.43-31.83,56.98-7.7,9.53-15.67,19.39-15.67,23.02,0,9.25,5.64,21.3,10.95,27.94l2.68,3.35-57.99,9.39-.9-.9c-5.86-5.86-9.05-10.42-11.31-17.32,2.01,9.2,4.56,18.47,7.53,27.15,13.25-5.69,37.02-11.6,52.04-11.6,9.29,0,14,2.69,14,8v30c0,9.76,0,16.82-.72,21.45-.33,2.12-1.33,8.55-7.28,8.55-2.44,0-7.82.35-14.06.75-8.46.55-18.96,1.23-25.73,1.25l-1.58.26,12.79,47.08c2.96,11.36,7.09,44.09,7.09,71.66,0,31.52-5.55,47.5-16.5,47.5ZM60.16,321.2c10.54,7.79,22.76,19.26,34.6,30.37,21.43,20.12,43.59,40.93,56.24,40.93,7.2,0,11.5-15.89,11.5-42.5s-4.1-59.55-6.92-70.37l-14.23-52.39,7.65-1.24c6.6,0,17.14-.68,25.61-1.23,6.33-.41,11.79-.77,14.39-.77,3,0,3-9.41,3-25v-30c0-2.61-5.64-3-9-3-15.39,0-40.37,6.47-52.42,12.25l-2.5,1.2-.93-2.61c-8.01-22.42-13.28-49.32-13.63-69.26l-19.29-3.62,51.82-9.42,1.1,4.87-24.13,6.5c.2,8.49,1.6,20.26,2.45,26.24,2.33,13.49,4.63,18.7,11.9,26.18l47.22-7.65c-5.08-7.65-9.59-18.62-9.59-27.68,0-5.15,6.06-12.9,16.78-26.16,13.69-16.94,30.72-38.02,30.72-53.84,0-7.94-14.06-11.5-28-11.5-25.47,0-111.94,12.76-158.98,33.78-3.97,1.8-5.52,5.23-5.52,12.22,0,9.17,3.29,22.32,6.76,36.24,4.33,17.32,9.24,36.95,9.24,54.26,0,2.24-.52,4.39-1.03,6.47-.36,1.5-.71,2.94-.88,4.4l11.75,4.84-1.34-33.1,4.95-.6c8.57,41.86,15.55,96.59,15.55,122,0,16.36-7.5,33.86-14.84,49.2ZM2086.48,278c-2.1,0-7-1.22-7-12.5,0-13.63,3.58-36.79,9.57-61.95,2.47-10.37,5.11-20,7.43-27.13,3.91-12.01,5.51-12.91,7.5-12.91h2.33l6.36,92.46,23.84-16.35-6.42,10.22c-11.26,17.91-38.07,28.17-43.62,28.17ZM2102.11,175.2c-6.28,18.2-17.63,65.43-17.63,90.3,0,5.12,1.19,7.5,2,7.5,2.24,0,11.96-3.17,21.72-9.26l-6.09-88.53ZM373.32,249.58l-5.58-7.75c-7.05-9.77-18.24-10.83-22.73-10.83-3.45,0-19.45,2.52-22.88,4.24l-2.25-4.46c20.88-10.65,35.4-29.41,38.84-50.2l.47-2.83,2.74.85c2.97.92,6.5,1.55,10.8,1.92l19.04,1.63-24.99,4.41,1.22,10.15c.51,6.25,1.94,22.79,4.27,43.38l1.07,9.49ZM345,226c4.24,0,13.59.82,21.46,7.23-1.85-17.16-3.01-30.61-3.45-36.03l-1.02-8.5c-4.27,14.89-13.81,28.41-27,38.46,4.4-.7,8.4-1.16,10.02-1.16ZM266,218h-14.92l26.74-9.22-4.58-48.37,2.84.09c17.63.57,30.42,11.08,30.42,25,0,14.95-4.17,23.13-14.38,28.24-7.1,3.55-15.26,4.26-26.12,4.26ZM278.77,165.69l4.35,45.94c2.44-.55,4.67-1.32,6.76-2.36,8.47-4.23,11.62-10.68,11.62-23.76,0-10.39-9.4-18.41-22.73-19.81ZM1348,216.95l-1.46-4.76,25.31-10.51,11.49-50.02,5.39,47.84h43.72l-84.45,17.45ZM1381.65,181.34l-5.51,23.98-3.42,1.42,11.52-2.38-2.59-23.02ZM616,216.95l-1.46-4.76,25.31-10.51,11.49-50.02,5.39,47.84h43.72l-84.45,17.45ZM649.65,181.34l-5.51,23.98-3.42,1.42,11.52-2.38-2.59-23.01Z"/>
  </g>
  <g>
    <path class="cls-1" d="M169.5,144v30c0,19.5,0,27.5-5.5,27.5-6,0-28.5,2-40,2l-4.51.75,13.51,49.75c3,11.5,7,44.5,7,71,0,24-3.5,45-14,45-21.5,0-64.5-52-94-73,7-14.5,15.5-33,15.5-50,0-25-7-80-15.5-121.5l1.5,37-17-7c0-4.5,2-8.5,2-12.5,0-31-16-69.5-16-90.5,0-7,1.5-12,7-14.5C56.5,17,142.5,4,169.5,4c16.5,0,30.5,4.5,30.5,14,0,27.5-47.5,68.5-47.5,80,0,9.5,5.5,22,11.5,29.5l-52.5,8.5c-8.5-8.5-11-14-13.5-28.5-1-7-2.5-20-2.5-28.5l26-7-38.5,7,8,1.5c0,21.5,6,49.5,13.5,70.5,12.5-6,38-12.5,53.5-12.5,7,0,11.5,1.5,11.5,5.5ZM1460.16,221.72c14.24-2.93,36.68-3.65,64.83-4.22,8.5,22.5,25.5,37.5,37,37.5,8,0,9.5-3,9.5-6.5,0-9.5-43-31-68-43.5-15-7.5-33.5-26.5-33.5-60,0-36,36.5-81,158-81,12.5,0,16.5,13.5,16.5,30.5,0,33.5-12.5,72.5-13.5,73-3,3-34.5,6.5-45.5,6.5-9.5,0-6-25.5-11.5-41.5-13.5,3-18,8-18,16.5,0,12,33,31.5,50.5,39,32.28,13.9,48.07,42.67,50.99,68.66,8.77-22.65,13.01-42.22,13.01-74.16,0-16-1-35-3-59v38.5c-10.5,0-14-6.5-14.5-11-1-10.5-2-21.5-2-30.5,0-7,.5-18.5,1.5-22,1.5-6,39-34.5,62-34.5,8.5,0,15.5,65,19.5,114l18-7c-6-35-16-73-16-93,0-8.5,1-13,13.5-13,20.5,0,45.5,17,47,21.5,6.14,18.43,45.14,106.52,69.27,167.42,1.22-54.7,3.85-128.8,7.73-161.92,1-7,27.5-28,44-28,9,0,33,101.5,49.5,172l-4-34.5c1.5-1.5,4.5-1.5,7-1.5,4.55,0,8.26,9.31,11,21.07.96-2.46,1.95-4.96,3-7.57,13-32,19.5-42.5,38.5-92.5l-14.5,25c-6,0-8.5-1.5-8.5-6,0-5,31.5-69.5,38.5-69.5,23.5,0,35.5-4.5,59.5-6,19.34,5.8,56.03,93.6,71.66,152.96,5.31-31.11,11.86-65.13,18.84-97.96l-11,33-12-3c7.5-63,17-85.5,41-85.5,18,0,45,1,47.5,6.5l49,114c-10-31-13-49.5-13-84.5,0-17,0-34.5,9.5-34.5,15.5,0,61,22,64.5,31,8,20.5,40,186,40,205.5,0,17-18.5,27.5-29,27.5-21,0-37-7.5-63-42-17-22.5-34-54.5-56-103l16,52c3,20,5,38,5,52,0,21-99.5,41-116,41-1.5,0-4-2.5-4-8,0-7.92.74-18.5,2.09-31.06-34.19,26.99-109.95,40.06-161.58,40.06-20.58,0-28.1-15.53-29.99-38.58-22.87,19.25-60.69,38.08-84.51,38.08-2.93,0-5.38-.46-7.44-1.28-1.76.51-3.76.78-6.06.78-34,0-85-26.5-93.5-38l-9-66,26.5-9c-29.5,6.5-47,10.5-72.5,19l19-2.5c3,10,6.5,51.5,6.5,64,0,8-49.5,33-80,33-13.5,0-28-4.5-28-17.5,0-.75.07-1.61.19-2.54-12.71,12.28-30.23,20.04-48.69,20.04-52,0-78.5-26.5-96.5-54l16.5,25.5c-8.5,11-26.5,28.5-37.5,28.5-1.44,0-2.84-.61-4.2-1.71-5.64,1.09-10.88,1.71-13.3,1.71-13,0-50.5-27.5-80.5-49.5-6-7-8.5-35-10-55l-26.5,10.5,16.5-3c.5,6.5,1,17.5,1,28,0,14-3.5,22-7,25.5-9,8-59,39-94.5,43.5-.18-.13-.37-.27-.54-.41-.43,22.03-4.13,40.41-13.96,40.41-21.5,0-64.5-52-94-73,7-14.5,15.5-33,15.5-50,0-25-7-80-15.5-121.5l1.5,37-17-7c0-4.5,2-8.5,2-12.5,0-9.89-1.63-20.55-3.85-31.16-15.48,32.95-50.6,86.08-75.64,114.16l-10.5-22.5c13,55.5,27.5,81,27.5,100,0,10-62.5,26-83,26-9,0-14.5-6-14.5-11.5,0-18,14.5-49,28-105.5l-13,30c-16.8-40.52-44.02-85.17-60.64-118.92-12.11,20.4-37.19,46.08-55.87,62.92,18.5-6,29.5-6.5,44.5-6.5s17.5,17,17.5,24c0,28.5-12,54.5-14.5,92l11.5-46.5c3-1,5.5-3.5,8.5-3.5s4,14,4,29.5c0,10.5-.5,21-1,29.5-1,11.5-2.5,25-21,25-12,0-79.5-18-79.5-34.5,0-5.5,14-39,14-58,0-10-9-11.5-13-11.5-3.5,0-6,1-7.5,2.5,3,17.5,3,35,3,42.5,0,25.5-2.5,59-12.5,59-16.69,0-56.56-22.94-78.28-41.26,5.86,13.4,10.29,25.33,10.29,30.76,0,6-27,10.5-33.5,10.5-13,0-50.5-27.5-80.5-49.5-6-7-8.5-35-10-55l-26.5,10.5,16.5-3c.5,6.5,1,17.5,1,28,0,14-3.5,22-7,25.5-9,8-59,39-94.5,43.5-5.27-3.65-8.9-15.2-10.08-22.64-38.3,9.44-110.67,21.64-138.41,21.64-7.41,0-13.81-21.46-18.94-48.82,1.23,15.96,2.44,32.48,2.44,42.32,0,5.5-.5,9-5,9-14.5,0-70.5-4.5-70.5-22.5,0-15,1.5-28,5.5-49.5l-24,2.5-6.5-32.5,6,79.5c-25,14.5-45.5,21-66.5,21-15,0-16.5-20-16.5-34,0-60.5,3.5-118.5,3.5-180l.99-41.75s51.51-6.25,92.51,9.75c19.42,7.43,36.54,15.51,47.67,27.41,1.16-4.22,2.69-6.47,4.33-7.41,9-5.5,146.5-40,180.5-40,3.5,0,5.5,18.5,5.5,37.5s-.5,36.5-4.5,41.5c-4,5.5-97.5,9-97.5,13.5,0,3,1.5,26,5,33.5l-1-18c6.5-2.5,37-11.5,48-11.5,8.5,0,13,56.5,13,62-5,2-40.5,7.5-47.5,7.5,0,9.5,1.5,14.5,5.5,14.5,17,0,70-22,85.5-22,3.84,0,7.81,13.36,10.77,29.76,27.28-61.4,30.41-69.3,50.23-126.26l-14.5,32.5c-5.5-4-8.5-10.5-8.5-17,0-15.5,22-77.5,27-77.5,19,0,53.5,1.5,57,9.5,10,23.5,39.5,91.5,75,157.5,0,0,7.11,13.39,15.22,29.93,6.23-17.09,27.28-28.9,27.28-71.93,0-21.5-1.5-23-5-52-3-25-9-42-9-46.5,0-22.5,39-26.5,56.5-26.5,9,0,30,73.5,30,96,11.5-22.5,29-96,44-96,10.02,0,23.74,6.93,35.15,15.3,1.02-9.06,7.66-15.3,26.35-15.3,26.5,0,60.5,12,63,21l24,84.5,14-43.5c8-25.5,20-61.5,29-61.5,12.39,0,34.44,1.1,49.96,6.48-1.48-6.98-2.47-13.27-2.47-18.48,0-7,1.5-12,7-14.5,47-21,133-34,160-34,16.5,0,30.5,4.5,30.5,14,0,27.5-47.5,68.5-47.5,80,0,9.5,5.5,22,11.5,29.5l-52.5,8.5c-8.5-8.5-11-14-13.5-28.5-1-7-2.5-20-2.5-28.5l26-7-38.5,7,8,1.5c0,21.5,6,49.5,13.5,70.5,12.5-6,38-12.5,53.5-12.5,7,0,11.5,1.5,11.5,5.5v30c0,19.5,0,27.5-5.5,27.5-6,0-28.5,2-40,2l-11-21.5,20,72c1.45,5.57,3.14,16.17,4.49,28.64,3.22-8.12,7.32-18.04,12.01-28.64,28-63,31-70.5,51-128l-14.5,32.5c-5.5-4-8.5-10.5-8.5-17,0-15.5,22-77.5,27-77.5,19,0,53.5,1.5,57,9.5,9.77,22.97,38.17,88.44,72.59,153,.31-.22.63-.42.97-.63M279,160.5c0-13-12.5-22-28-22.5l4.5,47.5-14.5,5c9.5,0,18-.5,25-4,10-5,13-13,13-26ZM339,159.5l8.5-1.5c-4.32-.37-8.1-1.02-11.33-2.02-3.51,21.26-18.09,40.76-40.17,52.02,4-2,20.5-4.5,24-4.5,5.55,0,17.29,1.5,24.76,11.87-2.12-18.73-3.56-34.82-4.26-43.37l-1.5-12.5ZM651,177h-21.5l-4-35.5-8.5,37-26.5,11,60.5-12.5ZM1382.99,177h-21.5l-4-35.5-8.5,37-26.5,11,60.5-12.5ZM2102.98,223.5l-17.5,12-6.5-94.5c-4,0-22,68.5-22,99.5,0,6,1.5,10,4.5,10,4.5,0,30.5-9.5,41.5-27Z"/>
    <path d="M1238.99,372.5c-14.63,0-36.51-20.54-59.66-42.28-12.36-11.61-25.14-23.61-35.79-31.18l-1.72-1.22.92-1.9c7.38-15.29,15.25-32.93,15.25-48.91,0-18-3.76-52.3-9.04-85.41l.19,4.71-22.16-9.12v-1.67c0-2.62.59-5.06,1.11-7.21.46-1.88.89-3.65.89-5.29,0-6.78-.76-14.33-2.38-23.36-16.89,33.35-49.46,81.92-72.75,108.03l-2.53,2.83-.58-1.25c3.99,14.02,7.87,25.59,11.22,35.6,5.53,16.51,9.52,28.44,9.52,38.65,0,8.87-26.81,16.61-35.62,19.15-19.07,5.5-39.58,9.35-49.88,9.35s-17-7.27-17-14c0-10.07,4.32-23.9,10.3-43.05,2.86-9.15,6.1-19.55,9.49-31.43l-2.33,5.39-2.26-5.45c-10.63-25.63-25.78-53.54-39.15-78.17-7.04-12.97-13.74-25.31-19.42-36.59-12.54,19.39-33.56,40.53-46.16,52.44,13.26-3.35,22.92-3.65,35.03-3.65,15.79,0,20,16.66,20,26.5,0,14.52-3.07,28.45-6.37,43.15l.08-.03c.94-.31,1.9-.85,2.91-1.42,1.83-1.03,3.9-2.2,6.39-2.2,3.59,0,4.84,4.46,5.61,11.15.58,5.07.89,12.28.89,20.85,0,11.27-.57,22.32-1,29.65-.95,10.93-2.38,27.35-23.5,27.35-6.48,0-26.6-4.6-45.09-11.21-21.84-7.8-34.08-15.55-36.47-23.07-.36,4.18-.84,8.35-1.47,12.24-3.57,22.04-10.27,22.04-12.47,22.04-16.36,0-50.52-19.43-72.18-35.72,4.49,11.09,6.68,18.56,6.68,22.72s-5,7.15-16.21,9.93c-7.66,1.9-16.23,3.07-19.79,3.07-12.8,0-43.36-21.66-81.98-49.98l-.23-.17-.19-.22c-5.85-6.83-8.47-29.2-10.34-53.05l-5.4,2.14.12,1.6c.46,6.04,1.01,17.05,1.01,28.19,0,12.42-2.82,22.35-7.73,27.27l-.11.1c-8.3,7.38-59.28,39.48-95.85,44.11l-.95.12-.79-.54c-5.69-3.94-9.15-14.46-10.64-21.64-40.12,9.65-109.6,21.08-136.44,21.08-3.93,0-8.82-2.93-14.36-20.85.23,4.51.36,8.55.36,11.85,0,4.3,0,11.5-7.5,11.5-.73,0-73-1.47-73-25,0-14.13,1.31-26.63,4.94-46.67l-22.28,2.32,3.45,45.72-1.36.79c-25.44,14.76-46.34,21.34-67.75,21.34-19,0-19-26.52-19-36.5,0-30.16.88-60.24,1.74-89.33.87-29.41,1.76-59.83,1.76-90.67l1.04-43.97,2.15-.26c2.13-.26,52.61-6.14,93.72,9.9,16.71,6.39,33.71,13.87,45.73,25.17,1.1-2.41,2.46-4.07,4.12-5.01,8.96-5.48,147.25-40.33,181.74-40.33,3.38,0,5.21,3.87,6.54,13.79.94,7.03,1.46,16.33,1.46,26.21,0,23.27-.83,37.78-5.05,43.06-2.53,3.18-15.31,4.79-54.37,8.27-16.89,1.5-37.64,3.35-42.55,4.94.1,2.39.41,6.86.93,11.76,7.03-2.61,37.15-11.53,48.53-11.53,3.93,0,8.13,3.76,12.16,31.07,2.17,14.69,3.34,30.29,3.34,33.43v1.69l-1.57.63c-4.99,2-35.27,6.72-45.89,7.55.2,6.23,1.24,9.63,2.96,9.63,8.31,0,26.33-5.73,43.75-11.26,17.38-5.52,33.79-10.74,41.75-10.74,2.04,0,6.57,0,11.7,24.01,17.69-39.87,24.47-55.84,34.24-82.82l-.92-.67c-5.97-4.34-9.53-11.45-9.53-19.02,0-8.78,6.34-29.94,11.77-45.39,12.16-34.61,16.06-34.61,17.73-34.61,24.85,0,55.31,1.91,59.29,11,13.74,32.28,41.72,95.61,74.91,157.32.07.13,5.89,11.1,12.92,25.26,1.9-3.58,4.28-7.03,6.76-10.62,8.07-11.68,18.12-26.21,18.12-55.45,0-14.87-.74-20.14-2.35-31.68-.7-5.03-1.58-11.29-2.63-20.02-1.86-15.53-4.9-27.96-6.91-36.19-1.31-5.38-2.11-8.63-2.11-10.61,0-27.6,49.15-29,59-29,2.38,0,5.53,1.58,10.77,13.32,3.15,7.05,6.61,16.74,10,28.03,4.54,15.09,9.11,33.67,10.92,47.1,2.85-7.23,5.98-16.39,9.23-25.91,12.88-37.77,22.15-62.52,33.09-62.52,8.72,0,21.05,5.02,33.49,13.56,2.88-9.11,12.1-13.56,28.01-13.56,25.24,0,62.2,11.29,65.41,22.83l21.74,76.54,11.47-35.64c14.27-45.5,23.07-63.23,31.38-63.23,8.8,0,29.93.55,46.68,5.33-1.14-6.07-1.68-10.85-1.68-14.83,0-6.02.96-13.37,8.47-16.78,46.77-20.9,132.04-34.22,161.03-34.22,20.36,0,33,6.32,33,16.5,0,17.58-17.65,39.43-31.83,56.98-7.7,9.53-15.67,19.39-15.67,23.02,0,9.25,5.64,21.3,10.95,27.94l2.68,3.35-57.99,9.39-.9-.9c-5.86-5.86-9.06-10.42-11.31-17.32,2.01,9.2,4.56,18.47,7.53,27.15,13.25-5.69,37.02-11.6,52.04-11.6,9.29,0,14,2.69,14,8v30c0,9.76,0,16.82-.72,21.45-.33,2.12-1.33,8.55-7.28,8.55-2.44,0-7.82.35-14.06.75-8.54.55-19.18,1.25-25.94,1.25h-1.53l-.46-.9,13.4,48.23c1.11,4.24,2.31,11.15,3.4,19.36,2.32-5.64,5.17-12.39,8.4-19.71,20.9-47.02,27.83-63.03,38.24-91.8l-.92-.67c-5.97-4.34-9.53-11.45-9.53-19.02,0-8.78,6.34-29.94,11.77-45.39,12.16-34.61,16.06-34.61,17.73-34.61,24.85,0,55.31,1.91,59.29,11,13.25,31.15,40.29,92.38,72.51,152.83l-1.18.63,1.24,2.06c-.29.17-.56.35-.82.53l-2.31,1.63-1.33-2.5c-32.31-60.61-59.41-122-72.69-153.2-1.67-3.81-19.32-7.93-54.11-7.98-5.08,5.13-25.09,59.55-25.09,75,0,4.88,1.86,9.51,5.09,12.9l13.12-29.42,4.64,1.84c-20.04,57.63-22.91,64.81-51.08,128.19-5.19,11.73-9.37,22-11.97,28.54l-3.72,9.38-1.09-10.03c-1.32-12.14-2.97-22.71-4.42-28.28l-26.59-95.73,21.54,42.09c6.62-.09,16.24-.71,24.09-1.22,6.33-.41,11.79-.77,14.39-.77,3,0,3-9.41,3-25v-30c0-2.61-5.64-3-9-3-15.39,0-40.37,6.47-52.42,12.25l-2.5,1.2-.93-2.61c-8.01-22.42-13.28-49.32-13.63-69.26l-19.29-3.62,51.82-9.42,1.1,4.87-24.13,6.5c.2,8.49,1.6,20.26,2.45,26.24,2.33,13.49,4.63,18.7,11.9,26.18l47.22-7.65c-5.08-7.65-9.59-18.62-9.59-27.68,0-5.15,6.06-12.9,16.78-26.16,13.69-16.94,30.72-38.02,30.72-53.84,0-7.94-14.06-11.5-28-11.5-25.47,0-111.94,12.76-158.98,33.78-3.97,1.8-5.52,5.23-5.52,12.22,0,4.5.77,10.2,2.41,17.97l.92,4.33-4.18-1.45c-16.96-5.89-41.9-6.35-49.14-6.35-.72,0-4.7.95-12.57,19.66-5.12,12.17-10.19,27.82-14.04,40.09l-16.53,51.38-26.26-92.44c-1.91-6.89-33.19-19.18-60.6-19.18-20.07,0-23.23,7.47-23.87,13.08l-.48,4.29-3.48-2.55c-12.65-9.28-25.24-14.82-33.67-14.82-1.5,0-5.79,1.78-13.19,18.3-5.18,11.56-10.26,26.44-15.17,40.84-4.88,14.29-9.48,27.79-13.42,35.5l-4.73,9.25v-10.38c0-9.93-4.55-32.21-11.06-54.17-7.98-26.94-14.36-38.36-16.57-39.33-20.07.02-53.88,5.09-53.88,24,0,1.38.87,4.93,1.97,9.43,2.04,8.34,5.12,20.95,7.02,36.78,1.05,8.69,1.92,14.92,2.62,19.93,1.65,11.78,2.4,17.15,2.4,32.37,0,30.8-10.54,46.04-19,58.29-3.57,5.17-6.65,9.63-8.43,14.49l-2.01,5.51-2.58-5.27c-8-16.31-15.11-29.72-15.18-29.85-33.28-61.87-61.33-125.36-75.09-157.69-1.67-3.81-19.32-7.93-54.11-7.98-5.08,5.13-25.09,59.55-25.09,75,0,4.88,1.86,9.51,5.09,12.9l13.12-29.42,4.64,1.84c-19.82,56.98-23.11,65.25-50.3,126.46l-3.3,7.43-1.44-8c-3.61-19.97-7.07-26.79-8.49-27.71-7.28.09-23.94,5.38-40.05,10.5-17.79,5.65-36.18,11.5-45.27,11.5-8,0-8-11.91-8-17v-2.5h2.5c6.32,0,36.64-4.69,44.93-6.82-.26-4.9-1.28-17.27-2.99-29.32-3.55-24.92-7.07-28.04-7.56-28.36-9.74.06-36.05,7.51-45.28,10.71l1.62,29.09-5.48-11.74c-3.91-8.37-5.23-32.67-5.23-34.56,0-3.85,3.2-4.75,47.14-8.65,18.92-1.68,47.44-4.22,50.98-6.5,3.89-5.12,3.89-28.56,3.89-39.85,0-20.38-2.09-32.53-3.63-35-35.08.41-169.76,34.25-178.57,39.63-.61.35-2.01,1.55-3.22,5.94l-1.19,4.31-3.05-3.26c-11.43-12.22-30.04-20.39-46.74-26.78-35.27-13.76-79.06-10.75-89.17-9.82l-.94,39.54c0,30.85-.9,61.31-1.76,90.76-.85,29.05-1.74,59.1-1.74,89.19,0,21.49,4.45,31.5,14,31.5,20.11,0,39.87-6.14,63.89-19.88l-5.88-77.93,4.94-.68,6.05,30.27,25.07-2.61-.61,3.29c-4.03,21.66-5.46,34.49-5.46,49.04s48.65,20,68,20c1.56,0,2.5,0,2.5-6.5,0-9.73-1.2-26.15-2.44-42.13l4.95-.65c8.35,44.53,15.2,46.79,16.48,46.79,27.1,0,98.43-11.86,137.82-21.56l2.64-.65.43,2.69c1.2,7.56,4.47,16.95,8.33,20.41,35.36-4.95,83.9-35.5,92.06-42.7,1.52-1.55,6.22-7.65,6.22-23.68,0-9.46-.4-18.82-.8-25.04l-13.75,2.5-1.37-4.78,29.66-11.75.25,3.39c.95,12.64,3.45,46.03,9.24,53.36,28.19,20.67,66.62,48.83,78.77,48.83,8.25,0,29.53-4.77,31-8.08-.03-3.11-1.82-10.78-10.08-29.67l-4.29-9.82,8.2,6.91c21.85,18.42,60.92,40.67,76.67,40.67,4.82,0,10-17.68,10-56.5,0-7.42,0-24.79-2.96-42.08l-.22-1.28.91-.91c1.48-1.47,4.28-3.23,9.27-3.23,7.15,0,15.5,3.67,15.5,14,0,12.74-5.88,31.12-10.18,44.53-1.88,5.87-3.82,11.94-3.82,13.47,0,4.39,8.82,12.24,33.59,21.08,18.94,6.76,38.05,10.92,43.41,10.92,15.35,0,17.35-9.42,18.51-22.72.42-7.2.99-18.14.99-29.28,0-17.55-1.28-24.92-2.2-26.92-.98.21-2.03.81-3.22,1.48-.79.44-1.59.9-2.46,1.29l-11.19,45.25-4.92-.77c1.24-18.58,4.86-34.69,8.05-48.9,3.31-14.75,6.44-28.69,6.44-42.94,0-2.2-.42-21.5-15-21.5s-25.43.44-43.73,6.38l-11.15,3.62,8.7-7.85c19.13-17.26,43.73-42.7,55.39-62.34l2.35-3.97,2.04,4.14c6.03,12.26,13.46,25.94,21.33,40.43,12.5,23.02,26.55,48.91,37.09,73.25l10.68-24.65,4.73,1.58c-6.25,26.18-12.69,46.79-17.86,63.36-5.85,18.72-10.07,32.25-10.07,41.56,0,4.33,4.59,9,12,9,9.64,0,29.9-3.81,48.16-9.06,26.07-7.49,32.24-13.08,32.34-14.45,0-9.4-3.89-21-9.26-37.06-5.28-15.77-11.86-35.4-18.17-62.36l-5.5-23.49,19.08,40.89c24.47-28.31,57.81-78.94,72.73-110.7l3.18-6.77,1.53,7.32c2.66,12.73,3.9,22.8,3.9,31.67,0,2.24-.52,4.39-1.03,6.47-.36,1.5-.71,2.94-.88,4.4l11.75,4.84-1.34-33.1,4.95-.6c8.58,41.86,15.55,96.59,15.55,122,0,16.36-7.5,33.86-14.84,49.2,10.54,7.79,22.76,19.26,34.6,30.37,21.43,20.12,43.59,40.93,56.24,40.93,6.7,0,10.99-14.19,11.46-37.96l.1-5.11,3.65,2.96c35.37-4.95,83.92-35.51,92.08-42.7,1.53-1.56,6.22-7.66,6.22-23.68,0-9.46-.4-18.82-.8-25.04l-13.75,2.5-1.37-4.78,29.66-11.75.25,3.39c.95,12.64,3.45,46.03,9.24,53.36,28.19,20.67,66.62,48.83,78.77,48.83,2.02,0,6.9-.52,12.83-1.67l1.14-.22.9.73c.95.77,1.83,1.16,2.63,1.16,9.32,0,25.55-15.11,34.43-26.14l-15.53-24,4.19-2.73s0,0,0,.01h0c16.11,24.62,41.4,52.86,94.4,52.86,17.12,0,34.23-7.05,46.96-19.34l5.16-4.99-.95,7.12c-.12.86-.17,1.6-.17,2.21,0,11.06,13.17,15,25.5,15s31.36-4.84,49.67-12.95c18.95-8.39,27.47-15.6,27.83-17.6,0-11.1-3.08-48.68-5.88-61.18l-16.8,2.21-1.12-4.85c25.65-8.55,43.47-12.62,72.75-19.07l1.34,4.81-24.55,8.34,8.63,63.29c8.79,10.68,57.97,36.51,91.11,36.51,2,0,3.81-.23,5.37-.68l.82-.24.79.31c1.85.73,4.04,1.1,6.51,1.1,23.7,0,61.48-19.46,82.9-37.49l3.71-3.12.39,4.83c2.05,25.09,10.53,36.28,27.49,36.28,53.31,0,127.51-13.85,160.04-39.52l4.67-3.68-.63,5.91c-1.38,12.85-2.07,23.21-2.07,30.79,0,3.65,1.26,5.19,1.71,5.5,8.13-.08,36.51-4.95,63.3-12.53,31.3-8.86,49.99-18.57,49.99-25.97,0-12.4-1.62-29.23-4.94-51.44l-15.95-51.82,4.67-1.77c22.9,50.48,39.56,81.14,55.72,102.53,25.98,34.47,41.48,41.01,61.01,41.01,9.34,0,26.5-9.49,26.5-25,0-20.12-32.01-184.56-39.83-204.59-2.92-7.51-46.74-29.41-62.17-29.41-7,0-7,17.74-7,32,0,34.39,2.77,52.39,12.88,83.73l-4.68,1.75-49-114c-.09-.15-3.34-4.99-45.2-4.99-21.4,0-30.79,19.77-38.25,81.11l7.62,1.9,10.27-30.8,4.82,1.31c-7.06,33.21-13.57,67.05-18.82,97.86l-1.94,11.39-2.94-11.17c-16.28-61.85-52.08-144.75-69.56-151.07-10.11.65-18.07,1.84-25.76,2.99-10.21,1.52-19.85,2.97-33.19,2.98-1.72.91-7.99,8.67-20.29,32.31-9.37,18.02-15.7,32.63-15.94,34.77,0,1.78,0,3.16,4.58,3.38l13.76-23.72,4.5,2.14c-11.86,31.2-18.84,47.01-25.59,62.31-4.13,9.36-8.04,18.21-12.93,30.24-1.04,2.59-2.02,5.09-2.98,7.54l-2.94,7.5-1.83-7.85c-4.41-18.92-8.4-19.14-8.56-19.14-1.25,0-3.14,0-4.33.33l3.81,32.89-4.92.86c-8.76-37.44-18.04-76.72-26.76-109.42-13.48-50.59-18.83-59.35-20.61-60.65-15.72.26-40.48,20.63-41.22,25.85-3.74,31.95-6.43,104.45-7.7,161.63l-.27,12.34-4.55-11.48c-12.07-30.45-27.64-67.22-41.39-99.66-13.87-32.74-24.83-58.59-27.93-67.9-1.62-3.73-25.2-19.79-44.63-19.79-11,0-11,3.29-11,10.5,0,12.76,4.27,33.58,8.8,55.62,2.49,12.14,5.07,24.69,7.17,36.95l.34,2.01-23.03,8.96-.27-3.34c-8.15-99.87-15.57-110.58-17.2-111.7-22.35.16-57.88,28.02-59.39,32.63-.84,2.96-1.42,13.62-1.42,21.37,0,8.66.94,19.26,1.99,30.26.21,1.84,1.51,7.59,9.51,8.59v-35.85l4.99-.21c2.05,24.63,3.01,43.44,3.01,59.21,0,34.17-5.04,54.05-13.18,75.06l-3.68,9.5-1.14-10.12c-3.35-29.83-21.85-54.74-49.49-66.64-16.29-6.98-52.01-27.08-52.01-41.3,0-10.17,5.97-15.83,19.96-18.94l2.18-.48.73,2.11c2.24,6.51,3.04,14.5,3.76,21.54.86,8.56,1.84,18.27,5.38,18.27,11.48,0,39.65-3.47,43.61-5.71,1.93-4.34,12.89-40.2,12.89-71.29,0-18.58-4.71-28-14-28-114.65,0-155.5,40.55-155.5,78.5s24.58,54,32.12,57.76c45,22.5,69.38,36.45,69.38,45.74,0,6.06-3.92,9-12,9-13.43,0-30.18-16.32-38.69-37.47-26.02.53-48.63,1.25-62.63,4.13l-1.01-4.9c13.47-2.77,34.3-3.59,58.41-4.12-5.61-2.87-10.98-5.55-15.69-7.91-8.18-4.09-34.88-20.67-34.88-62.24s42.16-83.5,160.5-83.5c8.67,0,19,5.73,19,33,0,17.94-3.5,36.79-6.44,49.44-1.43,6.14-3.07,12.32-4.64,17.39-2.05,6.65-2.71,7.74-3.45,8.21-1.04.88-4.35,2.66-20.9,4.81-7.92,1.03-16.5,1.8-22.44,2.06,6.27,3.61,12.68,6.86,18.36,9.29,26.33,11.34,44.85,33.81,50.91,61.2,6-17.52,9.6-35.84,9.6-64.4,0-5.57-.12-11.53-.37-18h-.13c-11.45,0-16.31-7.12-16.98-13.22-1.06-11.17-2.02-21.89-2.02-30.78,0-5.58.39-18.47,1.6-22.69,1.87-7.49,40.72-36.31,64.4-36.31,3.81,0,8.34,3.15,13.91,40.76,3.35,22.61,6.05,51.14,7.81,72.2l12.97-5.04c-2.02-11.55-4.44-23.35-6.79-34.78-4.58-22.3-8.9-43.36-8.9-56.63,0-8.78,1.18-15.5,16-15.5,20.93,0,47.32,17.06,49.37,23.21,3.04,9.11,14.51,36.18,27.79,67.53,12.09,28.53,25.6,60.42,36.9,88.43,1.37-55.04,3.95-120.02,7.46-149.95,1.29-9.04,29.27-30.21,46.48-30.21,3.05,0,6.05,3.12,11.57,18.62,3.5,9.85,7.8,24.24,12.79,42.79,6.21,23.13,12.75,49.83,19.21,76.99l.17-.17c2.23-2.23,5.86-2.23,8.77-2.23,4.55,0,8.26,4.99,11.47,15.58.07-.17.14-.34.2-.51,4.92-12.12,8.84-21,12.99-30.39,4.3-9.73,8.69-19.67,14.37-33.68h-1.04c-5.12,0-11-.97-11-8.5,0-4.09,11.39-27.22,16.91-37.78,17.88-34.22,22.23-34.22,24.09-34.22,13.08,0,22.6-1.42,32.67-2.93,7.92-1.18,16.12-2.41,26.67-3.07l.45-.03.43.13c20.01,6,53.84,86.64,70.38,143.94,2.88-16.37,6.08-33.44,9.49-50.7l-15.84-3.96.26-2.19c6.92-58.17,15.55-87.7,43.48-87.7,46.16,0,48.79,5.79,49.78,7.97l35.36,82.26c-3.07-15.69-4.13-30.91-4.13-51.72,0-18.19,0-37,12-37,15.29,0,62.6,21.73,66.83,32.59,7.88,20.2,40.17,186.1,40.17,206.41,0,18.04-18.96,30-31.5,30-21.14,0-37.76-6.85-65-43-12.56-16.63-25.39-38.69-41.07-70.98l5.54,18.11c3.38,22.55,5.03,39.68,5.03,52.37,0,10.35-18.04,20.71-53.63,30.78-27.84,7.88-56.54,12.72-64.87,12.72-3.2,0-6.5-3.93-6.5-10.5s.51-15.24,1.53-25.7c-35.52,24.44-105.42,37.2-158.52,37.2-23.86,0-30.03-19.46-32.01-36.2-22.89,18.03-58.63,35.7-82.48,35.7-2.78,0-5.31-.39-7.56-1.16-1.81.44-3.8.66-5.94.66-34.44,0-86.5-26.83-95.51-39.01l-.38-.51-.09-.63-9.03-66.18c-7.66,1.85-14.87,3.72-22.33,5.87l.23.76c3.08,10.27,6.61,52.33,6.61,64.72,0,11-52.63,35.5-82.5,35.5-13.69,0-28.26-4.53-30.27-16.99-13.1,10.86-29.66,16.99-46.23,16.99-37.01,0-61.07-13.15-77.98-29.53l-.04.06c-8.81,11.39-27.31,29.47-39.48,29.47-1.63,0-3.24-.52-4.8-1.55-5.08.94-10.09,1.55-12.7,1.55-12.8,0-43.36-21.66-81.98-49.98l-.23-.17-.19-.22c-5.85-6.83-8.47-29.2-10.33-53.05l-5.4,2.14.12,1.6c.46,6.04,1.01,17.05,1.01,28.19,0,12.42-2.82,22.35-7.73,27.27l-.11.1c-8.18,7.27-57.83,38.56-94.27,43.9-.85,26.7-6.35,40.24-16.39,40.24ZM2160.76,327.04h0,0ZM836.2,229.55c2.79,17.21,2.79,34.11,2.79,41.45,0,4.77-.09,11.84-.52,19.47.68-2.45,1.71-5.7,3.08-9.97,3.96-12.36,9.94-31.04,9.94-43.01,0-8.12-7.34-9-10.5-9-1.96,0-3.61.37-4.79,1.05ZM1529.09,220.88c8.54,19.09,23.4,31.62,32.9,31.62,7,0,7-2.31,7-4,0-1.12-1.69-5.76-23.39-18.47-5.19-3.04-10.83-6.14-16.52-9.15ZM1572.3,135.48c-11.43,2.98-13.81,7.42-13.81,13.52,0,5.14,8.34,12.86,19.15,20.23-1.37-4.2-1.93-9.77-2.51-15.5-.6-5.98-1.28-12.66-2.84-18.25ZM802.31,66.48s0,0,0,0t0,0ZM126,372.5c-14.63,0-36.51-20.54-59.66-42.28-12.36-11.61-25.14-23.61-35.79-31.18l-1.72-1.22.92-1.9c7.38-15.29,15.25-32.93,15.25-48.91,0-18-3.76-52.31-9.04-85.42l.19,4.71-22.16-9.12v-1.67c0-2.62.59-5.06,1.11-7.21.46-1.88.89-3.65.89-5.29,0-16.7-4.83-36.01-9.09-53.05C3.36,75.72,0,62.29,0,52.5c0-6.02.96-13.37,8.47-16.78C55.24,14.83,140.51,1.5,169.5,1.5c20.36,0,33,6.32,33,16.5,0,17.58-17.65,39.43-31.83,56.98-7.7,9.53-15.67,19.39-15.67,23.02,0,9.25,5.64,21.3,10.95,27.94l2.68,3.35-57.99,9.39-.9-.9c-5.86-5.86-9.05-10.42-11.31-17.32,2.01,9.2,4.56,18.47,7.53,27.15,13.25-5.69,37.02-11.6,52.04-11.6,9.29,0,14,2.69,14,8v30c0,9.76,0,16.82-.72,21.45-.33,2.12-1.33,8.55-7.28,8.55-2.44,0-7.82.35-14.06.75-8.46.55-18.96,1.23-25.73,1.25l-1.58.26,12.79,47.08c2.96,11.36,7.09,44.09,7.09,71.66,0,31.52-5.55,47.5-16.5,47.5ZM35.16,296.2c10.54,7.79,22.76,19.26,34.6,30.37,21.43,20.12,43.59,40.93,56.24,40.93,7.2,0,11.5-15.89,11.5-42.5s-4.1-59.55-6.92-70.37l-14.23-52.39,7.65-1.24c6.6,0,17.14-.68,25.61-1.23,6.33-.41,11.79-.77,14.39-.77,3,0,3-9.41,3-25v-30c0-2.61-5.64-3-9-3-15.39,0-40.37,6.47-52.42,12.25l-2.5,1.2-.93-2.61c-8.01-22.42-13.28-49.32-13.63-69.26l-19.29-3.62,51.82-9.42,1.1,4.87-24.13,6.5c.2,8.49,1.6,20.26,2.45,26.24,2.33,13.49,4.63,18.7,11.9,26.18l47.22-7.65c-5.08-7.65-9.59-18.62-9.59-27.68,0-5.15,6.06-12.9,16.78-26.16,13.69-16.94,30.72-38.02,30.72-53.84,0-7.94-14.06-11.5-28-11.5-25.47,0-111.94,12.76-158.98,33.78-3.97,1.8-5.52,5.23-5.52,12.22,0,9.17,3.29,22.32,6.76,36.24,4.33,17.32,9.24,36.95,9.24,54.26,0,2.24-.52,4.39-1.03,6.47-.36,1.5-.71,2.94-.88,4.4l11.75,4.84-1.34-33.1,4.95-.6c8.57,41.86,15.55,96.59,15.55,122,0,16.36-7.5,33.86-14.84,49.2ZM2061.48,253c-2.1,0-7-1.22-7-12.5,0-13.63,3.58-36.79,9.57-61.95,2.47-10.37,5.11-20,7.43-27.13,3.91-12.01,5.51-12.91,7.5-12.91h2.33l6.36,92.46,23.84-16.35-6.42,10.22c-11.26,17.91-38.07,28.17-43.62,28.17ZM2077.11,150.2c-6.28,18.2-17.63,65.43-17.63,90.3,0,5.12,1.19,7.5,2,7.5,2.24,0,11.96-3.17,21.72-9.26l-6.09-88.53ZM348.32,224.58l-5.58-7.75c-7.05-9.77-18.24-10.83-22.73-10.83-3.45,0-19.45,2.52-22.88,4.24l-2.25-4.46c20.88-10.65,35.4-29.41,38.84-50.2l.47-2.83,2.74.85c2.97.92,6.5,1.55,10.8,1.92l19.04,1.63-24.99,4.41,1.22,10.15c.51,6.25,1.94,22.79,4.27,43.38l1.07,9.49ZM320,201c4.24,0,13.59.82,21.46,7.23-1.85-17.16-3.01-30.61-3.45-36.03l-1.02-8.5c-4.27,14.89-13.81,28.41-27,38.46,4.4-.7,8.4-1.16,10.02-1.16ZM241,193h-14.92l26.74-9.22-4.58-48.37,2.84.09c17.63.57,30.42,11.08,30.42,25,0,14.95-4.17,23.13-14.38,28.24-7.1,3.55-15.26,4.26-26.12,4.26ZM253.77,140.69l4.35,45.94c2.44-.55,4.67-1.32,6.76-2.36,8.47-4.23,11.62-10.68,11.62-23.76,0-10.39-9.4-18.41-22.73-19.81ZM1323,191.95l-1.46-4.76,25.31-10.51,11.49-50.02,5.39,47.84h43.72l-84.45,17.45ZM1356.65,156.34l-5.51,23.98-3.42,1.42,11.52-2.38-2.59-23.02ZM591,191.95l-1.46-4.76,25.31-10.51,11.49-50.02,5.39,47.84h43.72l-84.45,17.45ZM624.65,156.34l-5.51,23.98-3.42,1.42,11.52-2.38-2.59-23.01Z"/>
  </g>
</svg>